<?xml version="1.0" encoding="UTF-8"?>
<svg width="335px" height="324px" viewBox="0 0 335 324" version="1.1" xmlns="http://www.w3.org/2000/svg" xmlns:xlink="http://www.w3.org/1999/xlink">
    <!-- Generator: Sketch 47.1 (45422) - http://www.bohemiancoding.com/sketch -->
    <title>pycon_logo_final</title>
    <desc>Created with Sketch.</desc>
    <defs>
        <polygon id="path-1" points="0 323.94 0 0.697 334.33 0.697 334.33 323.94"></polygon>
    </defs>
    <g id="Page-1" stroke="none" stroke-width="1" fill="none" fill-rule="evenodd">
        <g id="pycon_logo_final">
            <g id="Group-4">
                <mask id="mask-2" fill="white">
                    <use xlink:href="#path-1"></use>
                </mask>
                <g id="Clip-2"></g>
                <path d="M294.325,120.098 C293.313,105.229 293.088,89.251 293.128,72.899 C293.148,64.723 293.235,56.455 293.323,48.185 C293.345,45.39 293.367,45.885 293.388,45.25 L293.449,43.907 C293.486,43.004 293.514,42.084 293.528,41.176 C292.676,41.161 291.805,41.16 290.943,41.181 C290.513,41.198 290.086,41.214 289.661,41.231 L289.032,41.27 L288.723,41.293 L288.564,41.306 L287.846,41.317 C280.192,41.444 272.706,41.69 265.467,42.111 C212.062,45.582 154.213,45.408 100.814,45.248 C100.82,43.432 105.279,40.722 100.831,39.799 C83.041,37.023 83.052,33.389 83.063,29.757 C83.069,27.941 96.41,29.797 91.97,27.968 C105.317,28.008 127.583,27.167 114.226,25.312 C109.781,23.482 91.978,25.245 87.54,22.508 C83.093,19.77 92.003,17.072 87.565,14.338 C83.11,14.324 74.208,14.297 69.757,14.284 C65.321,12.451 74.224,8.846 69.774,8.833 C56.431,6.976 38.626,7.832 20.838,7.778 C20.843,5.962 16.388,4.133 25.292,3.251 C72.485,2.756 120.086,2.257 167.847,1.756 C191.727,1.525 215.648,1.293 239.578,1.062 L275.474,0.802 L284.448,0.75 L298.142,0.717 C310.139,0.711 322.135,0.704 334.129,0.697 C334.196,23.844 334.263,46.978 334.33,70.085 C334.32,85.609 334.311,101.116 334.301,116.597 C334.195,147.559 333.905,178.415 333.368,209.098 C332.462,226.896 328.83,213.545 326.105,200.197 C327.014,204.643 324.289,204.643 325.198,209.098 C322.473,209.098 317.934,200.197 317.025,182.394 C317.025,186.845 317.025,191.291 317.025,195.747 C316.118,200.197 314.301,195.747 312.486,195.747 C312.486,191.291 312.486,186.845 311.576,186.845 C310.67,186.845 308.852,186.845 307.945,186.845 C307.945,191.291 307.945,200.197 307.945,204.643 C307.945,200.197 307.945,195.747 307.038,195.747 C306.13,195.747 304.313,195.747 303.403,195.747 C302.497,186.845 304.313,173.498 303.403,164.591 L300.681,164.591 C299.772,173.498 300.681,186.845 300.681,195.747 C299.772,191.291 298.865,191.291 297.048,191.291 C296.138,177.944 298.865,164.591 296.138,151.248 C296.138,155.695 296.138,160.146 296.138,164.591 C291.598,155.695 295.233,133.45 294.325,120.098" id="python_amarilla" fill="#DEBC3E" mask="url(#mask-2)"></path>
                <path d="M43.361,232.733 C44.399,252.048 42.468,286.352 42.327,283.245 C43.167,283.29 44.043,283.324 44.932,283.332 C45.38,283.328 45.825,283.325 46.269,283.322 L46.932,283.299 L47.26,283.283 L47.486,283.273 L48.237,283.262 C56.241,283.145 64.058,282.865 71.551,282.305 C115.348,278.674 162.8,278.674 206.6,278.674 C206.6,280.489 202.949,283.213 206.6,284.122 C221.199,286.844 221.199,290.478 221.199,294.11 C221.199,295.926 210.251,294.11 213.897,295.926 C202.949,295.926 184.687,296.835 195.648,298.649 C199.299,300.466 213.897,298.649 217.544,301.373 C221.199,304.097 213.897,306.822 217.544,309.544 C221.199,309.544 228.5,309.544 232.151,309.544 C235.795,311.363 228.5,314.995 232.151,314.995 C243.099,316.811 257.702,315.902 272.293,315.902 C272.293,317.718 275.952,319.534 268.65,320.443 C228.262,321.108 187.508,321.779 146.622,322.452 C126.179,322.76 105.702,323.07 85.221,323.381 L54.5,323.741 L46.236,323.816 L30.86,323.884 C20.57,323.923 10.284,323.962 0,324 C0.703,304.174 1.406,284.361 2.108,264.571 C2.579,252.702 3.05,240.846 3.521,229.011 C4.539,205.342 5.718,181.758 7.108,158.306 C8.565,143.752 11.78,154.834 14.089,165.877 C13.318,162.198 16.042,162.301 15.272,158.615 C17.994,158.718 22.254,166.186 22.61,180.812 C22.748,177.165 22.886,173.52 23.024,169.868 C24.069,166.255 25.747,169.971 27.56,170.04 C27.422,173.692 27.284,177.337 28.194,177.371 C29.099,177.405 30.915,177.473 31.822,177.507 C31.96,173.864 32.236,166.564 32.374,162.92 C32.236,166.564 32.098,170.212 33.005,170.246 C33.912,170.28 35.727,170.349 36.636,170.383 C37.266,177.715 35.037,188.586 35.67,195.921 L38.389,196.023 C39.574,188.757 39.08,177.783 39.356,170.486 C40.127,174.174 41.033,174.208 42.849,174.276 C43.343,185.251 40.205,196.091 42.515,207.132 L42.929,196.195 C47.19,203.659 42.868,221.755 43.361,232.733" id="python_azul" fill="#11B8DF" mask="url(#mask-2)"></path>
            </g>
            <path d="M78.418,67.321 C77.73,66.633 76.639,66.288 75.146,66.288 L68.423,66.288 L68.423,83.178 L75.146,83.178 C76.639,83.178 77.73,82.824 78.418,82.115 C79.106,81.407 79.45,80.283 79.45,78.743 L79.45,70.663 C79.45,69.124 79.106,68.01 78.418,67.321 Z M82.045,85.396 C80.354,86.956 77.858,87.735 74.555,87.735 L68.423,87.735 L68.423,104.26 L63.293,104.26 L63.293,61.732 L74.438,61.732 C77.779,61.732 80.305,62.491 82.015,64.01 C83.725,65.529 84.581,67.929 84.581,71.21 L84.581,78.135 C84.581,81.417 83.735,83.838 82.045,85.396 L82.045,85.396 Z" id="p" fill="#191F20"></path>
            <polyline id="y" fill="#191F20" points="102.685 104.26 102.685 84.515 92.13 61.732 97.791 61.732 105.575 79.412 113.359 61.732 118.725 61.732 107.992 84.515 107.992 104.26 102.685 104.26"></polyline>
            <path d="M130.167,101.678 C128.339,99.958 127.425,97.375 127.425,93.932 L127.425,72.06 C127.425,68.618 128.339,66.036 130.167,64.314 C131.995,62.593 134.619,61.732 138.039,61.732 L146.412,61.732 L146.412,66.349 L137.45,66.349 C135.995,66.349 134.816,66.796 133.912,67.686 C133.007,68.577 132.555,69.651 132.555,70.906 L132.555,95.086 C132.555,96.342 133.007,97.416 133.912,98.306 C134.816,99.198 135.995,99.643 137.45,99.643 L146.412,99.643 L146.412,104.26 L138.039,104.26 C134.619,104.26 131.995,103.4 130.167,101.678" id="c" fill="#191F20"></path>
            <path d="M173.717,67.686 C172.811,66.796 171.633,66.349 170.178,66.349 L166.64,66.349 C165.185,66.349 164.006,66.796 163.102,67.686 C162.197,68.577 161.745,69.651 161.745,70.906 L161.745,95.086 C161.745,96.342 162.197,97.416 163.102,98.306 C164.006,99.198 165.185,99.643 166.64,99.643 L170.178,99.643 C171.633,99.643 172.811,99.198 173.717,98.306 C174.62,97.416 175.073,96.342 175.073,95.086 L175.073,70.906 C175.073,69.651 174.62,68.577 173.717,67.686 Z M177.461,101.678 C175.633,103.4 173.008,104.26 169.588,104.26 L167.23,104.26 C163.809,104.26 161.186,103.4 159.357,101.678 C157.529,99.958 156.615,97.375 156.615,93.932 L156.615,72.06 C156.615,68.618 157.529,66.036 159.357,64.314 C161.186,62.593 163.809,61.732 167.23,61.732 L169.588,61.732 C173.008,61.732 175.633,62.593 177.461,64.314 C179.289,66.036 180.203,68.618 180.203,72.06 L180.203,93.932 C180.203,97.375 179.289,99.958 177.461,101.678 L177.461,101.678 Z" id="o" fill="#191F20"></path>
            <polyline id="n" fill="#191F20" points="193.444 104.26 188.667 104.26 188.667 61.732 197.04 61.732 206.357 99.765 206.357 61.732 211.133 61.732 211.133 104.26 202.702 104.26 193.444 66.228 193.444 104.26"></polyline>
            <polyline id="e" fill="#191F20" points="241.238 61.732 241.238 66.167 226.674 66.167 226.674 80.08 239.764 80.08 239.764 84.515 226.674 84.515 226.674 99.826 241.238 99.826 241.238 104.26 221.543 104.26 221.543 61.732 241.238 61.732"></polyline>
            <path d="M270.134,101.678 C268.306,103.4 265.682,104.26 262.261,104.26 L253.888,104.26 L253.888,99.643 L262.851,99.643 C264.305,99.643 265.485,99.198 266.389,98.306 C267.294,97.416 267.746,96.342 267.746,95.086 L267.746,88.768 C267.746,87.553 267.441,86.571 266.832,85.821 C266.222,85.072 265.308,84.697 264.09,84.697 L262.321,84.697 C259.411,84.697 257.111,83.816 255.422,82.054 C253.731,80.293 252.886,77.732 252.886,74.369 L252.886,72.06 C252.886,68.618 253.8,66.036 255.628,64.314 C257.457,62.593 260.08,61.732 263.501,61.732 L271.932,61.732 L271.932,66.349 L262.911,66.349 C261.456,66.349 260.276,66.796 259.373,67.686 C258.467,68.577 258.016,69.651 258.016,70.906 L258.016,75.524 C258.016,76.779 258.408,77.822 259.195,78.652 C259.982,79.483 261.003,79.897 262.261,79.897 L264.031,79.897 C266.822,79.897 268.994,80.729 270.547,82.388 C272.1,84.05 272.876,86.561 272.876,89.922 L272.876,93.932 C272.876,97.375 271.963,99.958 270.134,101.678" id="s" fill="#191F20"></path>
            <path d="M76.613,176.672 C78.387,174.044 79.594,172.171 80.233,171.057 C80.871,169.943 81.301,168.815 81.524,167.671 C81.744,166.528 81.857,164.871 81.857,162.7 L81.857,156.699 C81.857,154.929 81.218,153.414 79.943,152.156 C78.665,150.9 77,150.271 74.948,150.271 L64.958,150.271 L64.958,143.757 L74.115,143.757 C78.943,143.757 82.647,144.971 85.228,147.399 C87.808,149.829 89.099,153.472 89.099,158.328 L89.099,161.927 C89.099,164.786 88.904,167.1 88.516,168.871 C88.128,170.643 87.572,172.214 86.851,173.585 C86.13,174.957 84.937,176.872 83.272,179.328 L70.951,197.243 L90.764,197.243 L90.764,203.757 L63.293,203.757 L63.293,196.214 L76.613,176.672" id="2" fill="#191F20"></path>
            <path d="M131.104,195.4 C132.407,196.685 134.059,197.329 136.057,197.329 L137.722,197.329 C139.72,197.329 141.371,196.685 142.675,195.4 C143.979,194.114 144.632,192.586 144.632,190.813 L144.632,167.671 L129.148,190.813 C129.148,192.586 129.8,194.114 131.104,195.4 Z M142.675,152.114 C141.371,150.828 139.72,150.185 137.722,150.185 L136.057,150.185 C134.059,150.185 132.407,150.828 131.104,152.114 C129.8,153.399 129.148,154.929 129.148,156.699 L129.148,179.928 L144.632,156.699 C144.632,154.929 143.979,153.399 142.675,152.114 Z M147.92,200.028 C145.393,202.514 141.995,203.757 137.722,203.757 L136.057,203.757 C131.783,203.757 128.384,202.514 125.86,200.028 C123.333,197.543 122.072,193.929 122.072,189.185 L122.072,158.328 C122.072,153.528 123.321,149.9 125.819,147.442 C128.315,144.986 131.729,143.757 136.057,143.757 L137.722,143.757 C142.05,143.757 145.463,144.986 147.961,147.442 C150.458,149.9 151.707,153.528 151.707,158.328 L151.707,189.185 C151.707,193.929 150.444,197.543 147.92,200.028 L147.92,200.028 Z" id="0" fill="#191F20"></path>
            <polyline id="1" fill="#191F20" points="194.545 197.329 194.545 150.528 182.807 154.986 182.807 148.042 193.713 143.757 201.621 143.757 201.621 197.329 210.694 197.329 210.694 203.757 183.64 203.757 183.64 197.329 194.545 197.329"></polyline>
            <path d="M250.743,151.771 C249.938,152.771 249.536,154.299 249.536,156.357 L249.536,163.385 C249.536,165.214 250.049,166.685 251.076,167.799 C252.102,168.914 253.392,169.529 254.947,169.642 L257.777,169.642 C259.497,169.642 260.912,169.071 262.022,167.928 C263.132,166.785 263.687,165.271 263.687,163.385 L263.687,156.357 C263.687,154.185 263.229,152.614 262.314,151.642 C261.398,150.672 259.885,150.185 257.777,150.185 L254.78,150.185 C252.893,150.243 251.547,150.772 250.743,151.771 Z M263.021,177.743 C261.911,176.628 260.44,176.071 258.61,176.071 L254.614,176.071 C252.782,176.071 251.311,176.628 250.202,177.743 C249.092,178.857 248.537,180.357 248.537,182.242 L248.537,191.071 C248.537,193.185 248.98,194.757 249.869,195.785 C250.757,196.814 252.144,197.329 254.031,197.329 L258.526,197.329 C260.634,197.329 262.189,196.829 263.187,195.828 C264.187,194.829 264.686,193.243 264.686,191.071 L264.686,182.242 C264.686,180.357 264.132,178.857 263.021,177.743 Z M268.599,200.542 C266.379,202.685 262.771,203.757 257.777,203.757 L255.446,203.757 C250.451,203.757 246.843,202.685 244.625,200.542 C242.404,198.399 241.295,194.957 241.295,190.214 L241.295,183.013 C241.295,178.042 243.097,174.528 246.706,172.471 C243.763,170.358 242.294,167.043 242.294,162.528 L242.294,157.128 C242.294,152.557 243.46,149.186 245.79,147.013 C248.121,144.843 251.451,143.757 255.779,143.757 L257.444,143.757 C261.773,143.757 265.103,144.843 267.433,147.013 C269.764,149.186 270.929,152.557 270.929,157.128 L270.929,162.528 C270.929,167.043 269.459,170.358 266.517,172.471 C270.125,174.528 271.929,178.042 271.929,183.013 L271.929,190.214 C271.929,194.957 270.817,198.399 268.599,200.542 L268.599,200.542 Z" id="8" fill="#191F20"></path>
            <path d="M63.876,263.757 L63.876,244.086 L66.698,244.086 L70.427,256.366 C70.659,257.115 70.822,257.809 70.915,258.446 C70.961,257.977 71.124,257.284 71.404,256.366 L75.131,244.086 L77.954,244.086 L77.954,263.757 L75.619,263.757 L75.619,250.577 C75.619,249.808 75.643,249.191 75.689,248.722 C75.549,249.434 75.399,250.052 75.236,250.577 L71.194,263.757 L70.636,263.757 L66.594,250.577 C66.432,250.052 66.281,249.434 66.141,248.722 C66.188,249.659 66.211,250.277 66.211,250.577 L66.211,263.757 L63.876,263.757" id="m" fill="#191F20"></path>
            <path d="M116.494,237.847 L110.291,242.231 L107.818,242.231 L112.766,237.847 L116.494,237.847 Z M105.587,256.928 L113.184,256.928 L110.047,249.059 C109.63,248.066 109.398,247.476 109.35,247.289 C109.234,247.664 109.013,248.254 108.689,249.059 L105.587,256.928 Z M115.937,263.757 L113.915,258.671 L104.89,258.671 L102.904,263.757 L100.36,263.757 L108.409,244.086 L110.291,244.086 L118.41,263.757 L115.937,263.757 L115.937,263.757 Z" id="a3" fill="#191F20"></path>
            <polyline id="l" fill="#191F20" points="140.818 263.757 140.818 244.086 143.257 244.086 143.257 261.874 155.035 261.874 155.035 263.757 140.818 263.757"></polyline>
            <path d="M182.529,256.928 L190.126,256.928 L186.989,249.059 C186.572,248.066 186.34,247.476 186.293,247.289 C186.175,247.664 185.955,248.254 185.631,249.059 L182.529,256.928 Z M192.879,263.757 L190.857,258.671 L181.833,258.671 L179.845,263.757 L177.301,263.757 L185.351,244.086 L187.233,244.086 L195.352,263.757 L192.879,263.757 L192.879,263.757 Z" id="a2" fill="#191F20"></path>
            <path d="M225.425,264.093 C223.52,264.093 221.917,263.592 220.616,262.59 C219.315,261.589 218.397,260.346 217.864,258.866 C217.329,257.387 217.062,255.738 217.062,253.921 C217.062,251.017 217.77,248.596 219.187,246.657 C220.604,244.717 222.683,243.748 225.425,243.748 C227.121,243.748 228.456,244.034 229.432,244.605 C230.408,245.176 231.21,245.949 231.838,246.924 L229.676,247.935 C229.165,247.186 228.584,246.595 227.934,246.164 C227.283,245.734 226.447,245.519 225.425,245.519 C224.078,245.519 222.945,245.965 222.027,246.853 C221.11,247.743 220.477,248.792 220.129,250 C219.78,251.21 219.606,252.515 219.606,253.921 C219.606,255.438 219.798,256.811 220.18,258.038 C220.564,259.264 221.208,260.286 222.115,261.101 C223.02,261.916 224.124,262.323 225.425,262.323 C226.888,262.323 228.044,261.883 228.891,261.003 C229.739,260.122 230.165,258.932 230.165,257.433 L230.165,256.254 L225.669,256.254 L225.669,254.511 L232.743,254.511 L232.743,256.674 C232.743,259.017 232.057,260.839 230.686,262.14 C229.315,263.443 227.562,264.093 225.425,264.093" id="g" fill="#191F20"></path>
            <path d="M259.469,256.928 L267.067,256.928 L263.929,249.059 C263.512,248.066 263.28,247.476 263.233,247.289 C263.116,247.664 262.896,248.254 262.572,249.059 L259.469,256.928 Z M269.819,263.757 L267.798,258.671 L258.773,258.671 L256.787,263.757 L254.243,263.757 L262.293,244.086 L264.174,244.086 L272.293,263.757 L269.819,263.757 L269.819,263.757 Z" id="a" fill="#191F20"></path>
            <path d="M32,296.925 L304.998,297 L304.998,28 L32,28 L32,296.925 Z M25,304 L312,304 L312,21 L25,21 L25,304 Z" id="cuadro" fill="#191F20"></path>
        </g>
    </g>
</svg>